<?xml version="1.0" encoding="UTF-8" standalone="no"?>
<!-- Created with Inkscape (http://www.inkscape.org/) -->

<svg
   xmlns:dc="http://purl.org/dc/elements/1.1/"
   xmlns:cc="http://creativecommons.org/ns#"
   xmlns:rdf="http://www.w3.org/1999/02/22-rdf-syntax-ns#"
   xmlns:svg="http://www.w3.org/2000/svg"
   xmlns="http://www.w3.org/2000/svg"
   xmlns:sodipodi="http://sodipodi.sourceforge.net/DTD/sodipodi-0.dtd"
   xmlns:inkscape="http://www.inkscape.org/namespaces/inkscape"
   id="svg8145"
   version="1.1"
   inkscape:version="0.91 r13725"
   width="320"
   height="150"
   viewBox="0 0 320 150"
   sodipodi:docname="clic.svg">
  <metadata
     id="metadata8151">
    <rdf:RDF>
      <cc:Work
         rdf:about="">
        <dc:format>image/svg+xml</dc:format>
        <dc:type
           rdf:resource="http://purl.org/dc/dcmitype/StillImage" />
        <dc:title></dc:title>
      </cc:Work>
    </rdf:RDF>
  </metadata>
  <defs
     id="defs8149" />
  <sodipodi:namedview
     pagecolor="#040000"
     bordercolor="#666666"
     borderopacity="1"
     objecttolerance="10"
     gridtolerance="10"
     guidetolerance="10"
     inkscape:pageopacity="0"
     inkscape:pageshadow="2"
     inkscape:window-width="1360"
     inkscape:window-height="744"
     id="namedview8147"
     showgrid="false"
     inkscape:zoom="2.6074562"
     inkscape:cx="105.90049"
     inkscape:cy="92.698805"
     inkscape:window-x="0"
     inkscape:window-y="24"
     inkscape:window-maximized="1"
     inkscape:current-layer="g4846" />
  <path
     style="fill:#ffffff"
     d="m 242.96017,149.04091 c -2.47219,-5.83133 -5.7122,-13.18328 -5.88416,-13.35182 -0.11826,-0.11591 -2.00398,1.51683 -4.19049,3.62831 l -3.97548,3.83905 -0.0865,-5.93409 c -0.0647,-4.43649 -0.18508,-5.93217 -0.47706,-5.92649 -0.21479,0.004 -0.963,0.14799 -1.66268,0.31959 -1.77328,0.43492 -8.4969,0.43701 -10.97714,0.003 -15.42747,-2.69652 -26.5939,-16.74477 -25.65114,-32.270652 0.82758,-13.6291 9.66367,-24.67723 22.79362,-28.49984 3.28574,-0.9566 10.88148,-1.22003 14.299,-0.4959 1.30491,0.27649 2.4637,0.3968 2.57508,0.26737 0.15291,-0.1777 8.46394,-21.358726 9.07211,-23.120696 0.0629,-0.18228 -0.99059,-0.86658 -2.34113,-1.52067 -6.35117,-3.07598 -10.83263,-8.713 -12.51416,-15.741 -0.93062,-3.88953 -0.73088,-9.00494 0.49383,-12.64728 2.1332,-6.34424 6.70817,-11.4385003 12.72091,-14.1648003 3.06761,-1.39092 5.88575,-1.95073 9.79306,-1.94536 5.63727,0.008 10.27168,1.62321 14.65935,5.10993 9.7368,7.7374803 11.58596,22.0365303 4.18255,32.3425703 -0.46372,0.64552 -0.13693,0.98656 8.98887,9.38111 5.20853,4.79117 10.14516,9.33511 10.97028,10.09764 l 1.50023,1.38642 1.36212,-1.1676 c 2.93695,-2.51752 7.97652,-4.29548 12.17541,-4.29548 9.00541,0 16.9483,6.49267 18.74296,15.320876 0.6272,3.08521 0.6272,4.73353 0,7.81875 -1.79466,8.8282 -9.73755,15.32087 -18.74296,15.32087 -7.27195,0 -14.15293,-4.30494 -17.26613,-10.80224 -1.9074,-3.98076 -2.43014,-7.91729 -1.62774,-12.25786 0.36773,-1.98923 1.7264,-5.270416 2.816,-6.800616 0.35917,-0.50439 0.65302,-1.0648 0.65302,-1.24532 0,-0.31847 -21.27646,-20.08703 -21.61922,-20.08703 -0.094,0 -0.95701,0.65003 -1.91784,1.4445 -2.36687,1.95708 -6.75178,4.11203 -9.70338,4.76869 -1.83868,0.40907 -3.37275,0.50399 -6.30106,0.38987 -2.12887,-0.083 -4.08535,-0.24149 -4.34773,-0.35228 -0.37889,-0.15998 -1.4108,2.2031 -5.01446,11.48315 -2.49557,6.426526 -4.53114,11.827706 -4.52349,12.002626 0.008,0.17492 0.97168,0.74622 2.1423,1.26956 12.84379,5.74195 20.17299,19.66525 17.72904,33.679892 -1.00549,5.76591 -3.2138,10.47715 -7.04818,15.03665 l -1.38282,1.64432 0.78808,0.6199 c 0.43343,0.34095 2.66555,2.3877 4.96025,4.54834 3.43773,3.2369 4.06931,3.96749 3.58786,4.15029 -0.32137,0.12201 -2.90997,0.39552 -5.75243,0.60778 -2.84247,0.21226 -5.16812,0.42379 -5.16812,0.47007 0,0.0463 1.43117,3.2764 3.18038,7.17807 1.74921,3.90168 3.18039,7.18664 3.18039,7.29992 0,0.16403 -1.731,0.99164 -4.50129,2.15212 -0.13329,0.0558 -0.44375,-0.37352 -0.68989,-0.95412 z m -17.20941,-19.36056 c 1.03792,-0.18467 2.13556,-0.40835 2.43919,-0.49706 0.5064,-0.14794 0.55902,-0.9793 0.63608,-10.04899 l 0.084,-9.88771 5.72468,5.3456 c 3.14858,2.94009 6.0467,5.63455 6.44028,5.98768 l 0.71558,0.64207 0.82953,-0.77103 c 2.62596,-2.44076 5.71758,-8.26116 6.84975,-12.89559 0.9552,-3.91003 0.9552,-9.369322 0,-13.279352 -2.60808,-10.67594 -10.85604,-18.93148 -21.67295,-21.69286 -1.84943,-0.47213 -3.42128,-0.60226 -6.99684,-0.57927 -4.03051,0.0259 -4.96371,0.13638 -7.40657,0.87674 -5.23786,1.58746 -9.64064,4.23149 -13.15032,7.89727 -10.76913,11.24811 -10.91955,28.571132 -0.34623,39.872152 4.70019,5.02366 9.51973,7.58423 17.24568,9.16241 1.33618,0.27294 6.80331,0.18907 8.60813,-0.13206 z m 80.72266,-39.261222 c 9.10409,-3.15775 14.19594,-13.27513 11.18907,-22.23241 -3.62786,-10.807216 -15.41069,-15.553826 -25.46288,-10.257496 -2.76234,1.45543 -5.85446,4.66434 -7.27394,7.54867 -1.20605,2.450656 -2.09714,5.886676 -2.09714,8.086486 0,2.19253 0.88962,5.63284 2.08441,8.06073 2.4712,5.02164 7.8125,8.81984 13.64743,9.70471 1.87207,0.2839 5.75846,-0.16337 7.91305,-0.91069 z m -52.3515,-44.932216 c 14.78023,-5.52718 19.38823,-23.77354 8.89567,-35.22433 -4.4235,-4.8274703 -9.93332,-7.2357903 -16.45644,-7.1930403 -3.6265,0.0238 -5.98476,0.59135 -9.38212,2.25811 -9.77451,4.7954403 -14.52791,16.0859103 -11.10764,26.3833203 1.77512,5.34434 6.13897,10.36611 11.09086,12.76296 3.78573,1.8324 5.68298,2.21688 10.35302,2.09807 3.52218,-0.0896 4.27548,-0.21334 6.60665,-1.08509 z"
     id="path8727"
     inkscape:connector-curvature="0" />
  <g
     transform="translate(5.9604645e-7,-902.36225)"
     id="g4846">
    <circle
       r="74.496132"
       cy="977.36224"
       cx="75"
       id="path5036"
       style="opacity:1;fill:none;fill-opacity:1;stroke:#ffffff;stroke-width:1.0077374;stroke-miterlimit:4;stroke-dasharray:3.0232122, 3.0232122;stroke-dashoffset:0;stroke-opacity:1" />
    <circle
       r="57.559708"
       cy="994.29865"
       cx="75.229248"
       id="path5036-3"
       style="opacity:1;fill:none;fill-opacity:1;stroke:#ffffff;stroke-width:1.0077374;stroke-miterlimit:4;stroke-dasharray:3.0232122, 3.02321220000000013;stroke-dashoffset:0;stroke-opacity:0.50980395" />
    <circle
       r="39.899849"
       cy="1011.9585"
       cx="74.486229"
       id="path5036-3-6"
       style="opacity:1;fill:none;fill-opacity:1;stroke:#ffffff;stroke-width:1.0077374;stroke-miterlimit:4;stroke-dasharray:3.0232122, 3.0232122;stroke-dashoffset:0;stroke-opacity:1" />
    <circle
       r="25.045141"
       cy="1026.7513"
       cx="74.098122"
       id="path5036-3-6-7"
       style="opacity:1;fill:#000000;fill-opacity:0;stroke:#ffffff;stroke-width:1.13140666;stroke-miterlimit:4;stroke-dasharray:3.3942201, 3.39422010000000007;stroke-dashoffset:0;stroke-opacity:0.39215687" />
    <text
       sodipodi:linespacing="125%"
       id="text4372"
       y="925.43243"
       x="45.274559"
       style="font-style:normal;font-weight:normal;font-size:17.8404274px;line-height:125%;font-family:sans-serif;letter-spacing:0px;word-spacing:0px;fill:#ffffff;fill-opacity:1;stroke:none;stroke-width:1px;stroke-linecap:butt;stroke-linejoin:miter;stroke-opacity:1"
       xml:space="preserve"><tspan
         style="font-style:normal;font-variant:normal;font-weight:normal;font-stretch:normal;font-family:'Open Sans';-inkscape-font-specification:'Open Sans';fill:#ffffff;font-size:18.75px"
         y="925.43243"
         x="45.274559"
         id="tspan4374"
         sodipodi:role="line">Mayor</tspan></text>
    <text
       sodipodi:linespacing="125%"
       id="text4372-3"
       y="991.67236"
       x="52.408066"
       style="font-style:normal;font-weight:normal;font-size:6.8941021px;line-height:125%;font-family:sans-serif;letter-spacing:0px;word-spacing:0px;fill:#ffffff;fill-opacity:1;stroke:none;stroke-width:1px;stroke-linecap:butt;stroke-linejoin:miter;stroke-opacity:1"
       xml:space="preserve"><tspan
         style="font-style:normal;font-variant:normal;font-weight:normal;font-stretch:normal;font-size:15px;font-family:'Open Sans';-inkscape-font-specification:'Open Sans';fill:#ffffff"
         y="991.67236"
         x="52.408066"
         id="tspan4374-1"
         sodipodi:role="line">Menor</tspan></text>
    <g
       style="fill:#ffffff;fill-opacity:1;stroke:none;stroke-opacity:1"
       id="g6291">
      <rect
         style="opacity:1;fill:#ffffff;fill-opacity:1;stroke:none;stroke-width:2;stroke-miterlimit:4;stroke-dasharray:6, 6;stroke-dashoffset:0;stroke-opacity:1"
         id="rect8839"
         width="101.23414"
         height="3.527081"
         x="24.26573"
         y="929.81305" />
      <path
         style="fill:#ffffff;fill-opacity:1;stroke:none;stroke-opacity:1"
         d="m 120.5465,938.08148 c -0.27323,-0.09 -0.41377,-0.1943 -0.79458,-0.5877 -0.45412,-0.4691 -0.59562,-0.8126 -0.5175,-1.256 0.075,-0.4258 0.0693,-0.4192 2.3061,-2.66049 l 2.08581,-2.09002 -2.08581,-2.09 c -1.61326,-1.6165 -2.10564,-2.12979 -2.17335,-2.26562 -0.11996,-0.24072 -0.16975,-0.53954 -0.13011,-0.78165 0.0563,-0.34378 0.15721,-0.50419 0.58922,-0.93638 0.48814,-0.48832 0.63968,-0.56558 1.11382,-0.56776 0.55104,-0.002 0.35169,-0.17302 3.5768,3.05832 3.23408,3.24031 2.97855,2.93292 2.97855,3.58309 0,0.65018 0.25553,0.34278 -2.97855,3.58311 -3.1615,3.1676 -3.00604,3.0321 -3.51192,3.0625 -0.19269,0.012 -0.30676,0 -0.45848,-0.052 z"
         id="path6209-3"
         inkscape:connector-curvature="0" />
      <path
         style="fill:#ffffff;fill-opacity:1;stroke:none;stroke-opacity:1"
         d="m 28.668092,938.08148 c 0.273225,-0.09 0.413763,-0.1943 0.794567,-0.5877 0.454113,-0.4691 0.59561,-0.8126 0.517492,-1.256 -0.075,-0.4258 -0.0693,-0.4192 -2.306063,-2.66049 l -2.085777,-2.09002 2.085777,-2.09 c 1.613234,-1.6165 2.105606,-2.12979 2.173315,-2.26562 0.119958,-0.24072 0.169747,-0.53954 0.130108,-0.78165 -0.0563,-0.34378 -0.157208,-0.50419 -0.589211,-0.93638 -0.488132,-0.48832 -0.63967,-0.56558 -1.113802,-0.56776 -0.551031,-0.002 -0.351684,-0.17302 -3.576742,3.05832 -3.234028,3.24031 -2.978502,2.93292 -2.978502,3.58309 0,0.65018 -0.255526,0.34278 2.978502,3.58311 3.161449,3.1676 3.005991,3.0321 3.511863,3.0625 0.192687,0.012 0.306755,0 0.458473,-0.052 z"
         id="path6209-3-6"
         inkscape:connector-curvature="0" />
    </g>
    <g
       style="fill:#ffffff"
       id="g6286">
      <rect
         style="opacity:1;fill:#ffffff;fill-opacity:1;stroke:none;stroke-width:2;stroke-miterlimit:4;stroke-dasharray:6, 6;stroke-dashoffset:0;stroke-opacity:1"
         id="rect8839-8"
         width="56.530849"
         height="3.527081"
         x="46.592293"
         y="995.14203" />
      <path
         style="fill:#ffffff"
         d="m 98.46851,1003.6135 c -0.27323,-0.09 -0.41377,-0.1943 -0.794578,-0.5877 -0.454124,-0.4691 -0.595624,-0.8126 -0.517503,-1.256 0.07501,-0.4258 0.06934,-0.4192 2.306101,-2.66055 l 2.08581,-2.09002 -2.08581,-2.09 c -1.613265,-1.6165 -2.105642,-2.12979 -2.173357,-2.26562 -0.11996,-0.24072 -0.169742,-0.53954 -0.130108,-0.78165 0.05629,-0.34378 0.157216,-0.50419 0.58922,-0.93638 0.488145,-0.48832 0.639685,-0.56558 1.113825,-0.56776 0.55104,-0.002 0.35169,-0.17302 3.5768,3.05832 3.23408,3.24031 2.97855,2.93292 2.97855,3.58309 0,0.65018 0.25553,0.34278 -2.97855,3.58317 -3.1615,3.1676 -3.00604,3.0321 -3.51192,3.0625 -0.19269,0.012 -0.30676,0 -0.45848,-0.052 z"
         id="path6209"
         inkscape:connector-curvature="0" />
      <path
         style="fill:#ffffff"
         d="m 49.810596,1003.6135 c 0.273225,-0.09 0.413763,-0.1943 0.794567,-0.5877 0.454113,-0.4691 0.59561,-0.8126 0.517492,-1.256 -0.075,-0.4258 -0.0693,-0.4192 -2.306063,-2.66056 l -2.085777,-2.09002 2.085777,-2.09 c 1.613234,-1.6165 2.105606,-2.12979 2.173315,-2.26562 0.119958,-0.24072 0.169747,-0.53954 0.130108,-0.78165 -0.0563,-0.34378 -0.157208,-0.50419 -0.589211,-0.93638 -0.488132,-0.48832 -0.63967,-0.56558 -1.113802,-0.56776 -0.551031,-0.002 -0.351684,-0.17302 -3.576742,3.05832 -3.234028,3.24031 -2.978502,2.93292 -2.978502,3.58309 0,0.65018 -0.255526,0.34278 2.978502,3.58308 3.161449,3.1677 3.005991,3.0322 3.511863,3.0626 0.192687,0.012 0.306755,0 0.458473,-0.052 z"
         id="path6209-3-6-7"
         inkscape:connector-curvature="0" />
    </g>
    <text
       sodipodi:linespacing="125%"
       id="text4372-36"
       y="949.28101"
       x="34.031937"
       style="font-style:normal;font-weight:normal;font-size:15.80234051px;line-height:125%;font-family:sans-serif;letter-spacing:0px;word-spacing:0px;fill:#ffffff;fill-opacity:1;stroke:none;stroke-width:1px;stroke-linecap:butt;stroke-linejoin:miter;stroke-opacity:1"
       xml:space="preserve"><tspan
         style="font-style:normal;font-variant:normal;font-weight:normal;font-stretch:normal;font-size:18.75px;font-family:'Open Sans';-inkscape-font-specification:'Open Sans';fill:#ffffff"
         y="949.28101"
         x="34.031937"
         id="tspan4374-7"
         sodipodi:role="line">Inversión</tspan></text>
    <text
       sodipodi:linespacing="125%"
       id="text4372-36-5"
       y="1015.7322"
       x="41.821266"
       style="font-style:normal;font-weight:normal;font-size:15.80234051px;line-height:125%;font-family:sans-serif;letter-spacing:0px;word-spacing:0px;fill:#ffffff;fill-opacity:1;stroke:none;stroke-width:1px;stroke-linecap:butt;stroke-linejoin:miter;stroke-opacity:1"
       xml:space="preserve"><tspan
         style="font-style:normal;font-variant:normal;font-weight:normal;font-stretch:normal;font-size:15px;font-family:'Open Sans';-inkscape-font-specification:'Open Sans';fill:#ffffff"
         y="1015.7322"
         x="41.821266"
         id="tspan4374-7-3"
         sodipodi:role="line">Inversión</tspan></text>
  </g>
</svg>
