<?xml version="1.0" encoding="UTF-8" standalone="no"?>
<!-- Created with Inkscape (http://www.inkscape.org/) -->

<svg
   xmlns:dc="http://purl.org/dc/elements/1.1/"
   xmlns:cc="http://creativecommons.org/ns#"
   xmlns:rdf="http://www.w3.org/1999/02/22-rdf-syntax-ns#"
   xmlns:svg="http://www.w3.org/2000/svg"
   xmlns="http://www.w3.org/2000/svg"
   xmlns:sodipodi="http://sodipodi.sourceforge.net/DTD/sodipodi-0.dtd"
   xmlns:inkscape="http://www.inkscape.org/namespaces/inkscape"
   id="svg8145"
   version="1.1"
   inkscape:version="0.91 r13725"
   width="320"
   height="150"
   viewBox="0 0 320 150"
   sodipodi:docname="clic.svg">
  <metadata
     id="metadata8151">
    <rdf:RDF>
      <cc:Work
         rdf:about="">
        <dc:format>image/svg+xml</dc:format>
        <dc:type
           rdf:resource="http://purl.org/dc/dcmitype/StillImage" />
        <dc:title />
      </cc:Work>
    </rdf:RDF>
  </metadata>
  <defs
     id="defs8149" />
  <sodipodi:namedview
     pagecolor="#040000"
     bordercolor="#666666"
     borderopacity="1"
     objecttolerance="10"
     gridtolerance="10"
     guidetolerance="10"
     inkscape:pageopacity="0"
     inkscape:pageshadow="2"
     inkscape:window-width="1360"
     inkscape:window-height="744"
     id="namedview8147"
     showgrid="false"
     inkscape:zoom="3.6874999"
     inkscape:cx="86.499192"
     inkscape:cy="20.006161"
     inkscape:window-x="0"
     inkscape:window-y="24"
     inkscape:window-maximized="1"
     inkscape:current-layer="svg8145" />
  <path
     inkscape:connector-curvature="0"
     id="path8727"
     d="m 242.96017,149.04091 c -2.47219,-5.83133 -5.7122,-13.18328 -5.88416,-13.35182 -0.11826,-0.11591 -2.00398,1.51683 -4.19049,3.62831 l -3.97548,3.83905 -0.0865,-5.93409 c -0.0647,-4.43649 -0.18508,-5.93217 -0.47706,-5.92649 -0.21479,0.004 -0.963,0.14799 -1.66268,0.31959 -1.77328,0.43492 -8.4969,0.43701 -10.97714,0.003 -15.42747,-2.69652 -26.5939,-16.74477 -25.65114,-32.270652 0.82758,-13.6291 9.66367,-24.67723 22.79362,-28.49984 3.28574,-0.9566 10.88148,-1.22003 14.299,-0.4959 1.30491,0.27649 2.4637,0.3968 2.57508,0.26737 0.15291,-0.1777 8.46394,-21.358726 9.07211,-23.120696 0.0629,-0.18228 -0.99059,-0.86658 -2.34113,-1.52067 -6.35117,-3.07598 -10.83263,-8.713 -12.51416,-15.741 -0.93062,-3.88953 -0.73088,-9.00494 0.49383,-12.64728 2.1332,-6.34424 6.70817,-11.4385003 12.72091,-14.1648003 3.06761,-1.39092 5.88575,-1.95073 9.79306,-1.94536 5.63727,0.008 10.27168,1.62321 14.65935,5.10993 9.7368,7.7374803 11.58596,22.0365303 4.18255,32.3425703 -0.46372,0.64552 -0.13693,0.98656 8.98887,9.38111 5.20853,4.79117 10.14516,9.33511 10.97028,10.09764 l 1.50023,1.38642 1.36212,-1.1676 c 2.93695,-2.51752 7.97652,-4.29548 12.17541,-4.29548 9.00541,0 16.9483,6.49267 18.74296,15.320876 0.6272,3.08521 0.6272,4.73353 0,7.81875 -1.79466,8.8282 -9.73755,15.32087 -18.74296,15.32087 -7.27195,0 -14.15293,-4.30494 -17.26613,-10.80224 -1.9074,-3.98076 -2.43014,-7.91729 -1.62774,-12.25786 0.36773,-1.98923 1.7264,-5.270416 2.816,-6.800616 0.35917,-0.50439 0.65302,-1.0648 0.65302,-1.24532 0,-0.31847 -21.27646,-20.08703 -21.61922,-20.08703 -0.094,0 -0.95701,0.65003 -1.91784,1.4445 -2.36687,1.95708 -6.75178,4.11203 -9.70338,4.76869 -1.83868,0.40907 -3.37275,0.50399 -6.30106,0.38987 -2.12887,-0.083 -4.08535,-0.24149 -4.34773,-0.35228 -0.37889,-0.15998 -1.4108,2.2031 -5.01446,11.48315 -2.49557,6.426526 -4.53114,11.827706 -4.52349,12.002626 0.008,0.17492 0.97168,0.74622 2.1423,1.26956 12.84379,5.74195 20.17299,19.66525 17.72904,33.679892 -1.00549,5.76591 -3.2138,10.47715 -7.04818,15.03665 l -1.38282,1.64432 0.78808,0.6199 c 0.43343,0.34095 2.66555,2.3877 4.96025,4.54834 3.43773,3.2369 4.06931,3.96749 3.58786,4.15029 -0.32137,0.12201 -2.90997,0.39552 -5.75243,0.60778 -2.84247,0.21226 -5.16812,0.42379 -5.16812,0.47007 0,0.0463 1.43117,3.2764 3.18038,7.17807 1.74921,3.90168 3.18039,7.18664 3.18039,7.29992 0,0.16403 -1.731,0.99164 -4.50129,2.15212 -0.13329,0.0558 -0.44375,-0.37352 -0.68989,-0.95412 z m -17.20941,-19.36056 c 1.03792,-0.18467 2.13556,-0.40835 2.43919,-0.49706 0.5064,-0.14794 0.55902,-0.9793 0.63608,-10.04899 l 0.084,-9.88771 5.72468,5.3456 c 3.14858,2.94009 6.0467,5.63455 6.44028,5.98768 l 0.71558,0.64207 0.82953,-0.77103 c 2.62596,-2.44076 5.71758,-8.26116 6.84975,-12.89559 0.9552,-3.91003 0.9552,-9.369322 0,-13.279352 -2.60808,-10.67594 -10.85604,-18.93148 -21.67295,-21.69286 -1.84943,-0.47213 -3.42128,-0.60226 -6.99684,-0.57927 -4.03051,0.0259 -4.96371,0.13638 -7.40657,0.87674 -5.23786,1.58746 -9.64064,4.23149 -13.15032,7.89727 -10.76913,11.24811 -10.91955,28.571132 -0.34623,39.872152 4.70019,5.02366 9.51973,7.58423 17.24568,9.16241 1.33618,0.27294 6.80331,0.18907 8.60813,-0.13206 z m 80.72266,-39.261222 c 9.10409,-3.15775 14.19594,-13.27513 11.18907,-22.23241 -3.62786,-10.807216 -15.41069,-15.553826 -25.46288,-10.257496 -2.76234,1.45543 -5.85446,4.66434 -7.27394,7.54867 -1.20605,2.450656 -2.09714,5.886676 -2.09714,8.086486 0,2.19253 0.88962,5.63284 2.08441,8.06073 2.4712,5.02164 7.8125,8.81984 13.64743,9.70471 1.87207,0.2839 5.75846,-0.16337 7.91305,-0.91069 z m -52.3515,-44.932216 c 14.78023,-5.52718 19.38823,-23.77354 8.89567,-35.22433 -4.4235,-4.8274703 -9.93332,-7.2357903 -16.45644,-7.1930403 -3.6265,0.0238 -5.98476,0.59135 -9.38212,2.25811 -9.77451,4.7954403 -14.52791,16.0859103 -11.10764,26.3833203 1.77512,5.34434 6.13897,10.36611 11.09086,12.76296 3.78573,1.8324 5.68298,2.21688 10.35302,2.09807 3.52218,-0.0896 4.27548,-0.21334 6.60665,-1.08509 z"
     style="fill:#ffffff" />
  <circle
     style="opacity:1;fill:none;fill-opacity:1;stroke:#ffffff;stroke-width:1.0077374;stroke-miterlimit:4;stroke-dasharray:3.0232122, 3.0232122;stroke-dashoffset:0;stroke-opacity:1"
     id="path5036"
     cx="75"
     cy="74.999992"
     r="74.496132" />
  <circle
     style="opacity:1;fill:none;fill-opacity:1;stroke:#ffffff;stroke-width:1.0077374;stroke-miterlimit:4;stroke-dasharray:3.0232122, 3.0232122;stroke-dashoffset:0;stroke-opacity:0.5098038"
     id="path5036-3"
     cx="75.229248"
     cy="91.936394"
     r="57.559708" />
  <circle
     style="opacity:1;fill:none;fill-opacity:1;stroke:#ffffff;stroke-width:1.0077374;stroke-miterlimit:4;stroke-dasharray:3.0232122, 3.0232122;stroke-dashoffset:0;stroke-opacity:1"
     id="path5036-3-6"
     cx="74.486229"
     cy="109.59624"
     r="39.899849" />
  <circle
     style="opacity:1;fill:#000000;fill-opacity:0;stroke:#ffffff;stroke-width:1.13140666;stroke-miterlimit:4;stroke-dasharray:3.3942201, 3.3942201;stroke-dashoffset:0;stroke-opacity:0.39215686"
     id="path5036-3-6-7"
     cx="74.098122"
     cy="124.38909"
     r="25.045141" />
  <g
     id="g6291"
     style="fill:#ffffff;fill-opacity:1;stroke:none;stroke-opacity:1"
     transform="translate(5.9604645e-7,-902.36225)">
    <rect
       y="929.81305"
       x="24.26573"
       height="3.527081"
       width="101.23414"
       id="rect8839"
       style="opacity:1;fill:#ffffff;fill-opacity:1;stroke:none;stroke-width:2;stroke-miterlimit:4;stroke-dasharray:6, 6;stroke-dashoffset:0;stroke-opacity:1" />
    <path
       inkscape:connector-curvature="0"
       id="path6209-3"
       d="m 120.5465,938.08148 c -0.27323,-0.09 -0.41377,-0.1943 -0.79458,-0.5877 -0.45412,-0.4691 -0.59562,-0.8126 -0.5175,-1.256 0.075,-0.4258 0.0693,-0.4192 2.3061,-2.66049 l 2.08581,-2.09002 -2.08581,-2.09 c -1.61326,-1.6165 -2.10564,-2.12979 -2.17335,-2.26562 -0.11996,-0.24072 -0.16975,-0.53954 -0.13011,-0.78165 0.0563,-0.34378 0.15721,-0.50419 0.58922,-0.93638 0.48814,-0.48832 0.63968,-0.56558 1.11382,-0.56776 0.55104,-0.002 0.35169,-0.17302 3.5768,3.05832 3.23408,3.24031 2.97855,2.93292 2.97855,3.58309 0,0.65018 0.25553,0.34278 -2.97855,3.58311 -3.1615,3.1676 -3.00604,3.0321 -3.51192,3.0625 -0.19269,0.012 -0.30676,0 -0.45848,-0.052 z"
       style="fill:#ffffff;fill-opacity:1;stroke:none;stroke-opacity:1" />
    <path
       inkscape:connector-curvature="0"
       id="path6209-3-6"
       d="m 28.668092,938.08148 c 0.273225,-0.09 0.413763,-0.1943 0.794567,-0.5877 0.454113,-0.4691 0.59561,-0.8126 0.517492,-1.256 -0.075,-0.4258 -0.0693,-0.4192 -2.306063,-2.66049 l -2.085777,-2.09002 2.085777,-2.09 c 1.613234,-1.6165 2.105606,-2.12979 2.173315,-2.26562 0.119958,-0.24072 0.169747,-0.53954 0.130108,-0.78165 -0.0563,-0.34378 -0.157208,-0.50419 -0.589211,-0.93638 -0.488132,-0.48832 -0.63967,-0.56558 -1.113802,-0.56776 -0.551031,-0.002 -0.351684,-0.17302 -3.576742,3.05832 -3.234028,3.24031 -2.978502,2.93292 -2.978502,3.58309 0,0.65018 -0.255526,0.34278 2.978502,3.58311 3.161449,3.1676 3.005991,3.0321 3.511863,3.0625 0.192687,0.012 0.306755,0 0.458473,-0.052 z"
       style="fill:#ffffff;fill-opacity:1;stroke:none;stroke-opacity:1" />
  </g>
  <g
     id="g6286"
     style="fill:#ffffff"
     transform="translate(5.9604645e-7,-902.36225)">
    <rect
       y="995.14203"
       x="46.592293"
       height="3.527081"
       width="56.530849"
       id="rect8839-8"
       style="opacity:1;fill:#ffffff;fill-opacity:1;stroke:none;stroke-width:2;stroke-miterlimit:4;stroke-dasharray:6, 6;stroke-dashoffset:0;stroke-opacity:1" />
    <path
       inkscape:connector-curvature="0"
       id="path6209"
       d="m 98.46851,1003.6135 c -0.27323,-0.09 -0.41377,-0.1943 -0.794578,-0.5877 -0.454124,-0.4691 -0.595624,-0.8126 -0.517503,-1.256 0.07501,-0.4258 0.06934,-0.4192 2.306101,-2.66055 l 2.08581,-2.09002 -2.08581,-2.09 c -1.613265,-1.6165 -2.105642,-2.12979 -2.173357,-2.26562 -0.11996,-0.24072 -0.169742,-0.53954 -0.130108,-0.78165 0.05629,-0.34378 0.157216,-0.50419 0.58922,-0.93638 0.488145,-0.48832 0.639685,-0.56558 1.113825,-0.56776 0.55104,-0.002 0.35169,-0.17302 3.5768,3.05832 3.23408,3.24031 2.97855,2.93292 2.97855,3.58309 0,0.65018 0.25553,0.34278 -2.97855,3.58317 -3.1615,3.1676 -3.00604,3.0321 -3.51192,3.0625 -0.19269,0.012 -0.30676,0 -0.45848,-0.052 z"
       style="fill:#ffffff" />
    <path
       inkscape:connector-curvature="0"
       id="path6209-3-6-7"
       d="m 49.810596,1003.6135 c 0.273225,-0.09 0.413763,-0.1943 0.794567,-0.5877 0.454113,-0.4691 0.59561,-0.8126 0.517492,-1.256 -0.075,-0.4258 -0.0693,-0.4192 -2.306063,-2.66056 l -2.085777,-2.09002 2.085777,-2.09 c 1.613234,-1.6165 2.105606,-2.12979 2.173315,-2.26562 0.119958,-0.24072 0.169747,-0.53954 0.130108,-0.78165 -0.0563,-0.34378 -0.157208,-0.50419 -0.589211,-0.93638 -0.488132,-0.48832 -0.63967,-0.56558 -1.113802,-0.56776 -0.551031,-0.002 -0.351684,-0.17302 -3.576742,3.05832 -3.234028,3.24031 -2.978502,2.93292 -2.978502,3.58309 0,0.65018 -0.255526,0.34278 2.978502,3.58308 3.161449,3.1677 3.005991,3.0322 3.511863,3.0626 0.192687,0.012 0.306755,0 0.458473,-0.052 z"
       style="fill:#ffffff" />
  </g>
  <path
     style="fill:#ffffff"
     d="m 65.345065,48.489007 c -1.736001,-0.330424 -2.918937,-1.196123 -3.622301,-2.65089 -0.480611,-0.994035 -0.678749,-2.11331 -0.609231,-3.441502 0.09855,-1.882505 0.666435,-3.29368 1.723332,-4.282351 0.850338,-0.795445 1.846426,-1.153917 3.206452,-1.153917 1.431962,0 2.282922,0.322365 3.165658,1.199217 0.972345,0.965865 1.387043,2.151738 1.388723,3.971171 l 8.67e-4,0.947626 -3.823758,0 -3.823757,0 4.68e-4,0.349122 c 2.6e-4,0.192021 0.06066,0.600124 0.134174,0.906893 0.325814,1.359098 1.120982,2.22258 2.341956,2.543135 1.125843,0.295582 3.005272,0.06022 4.589041,-0.574719 0.106959,-0.04289 0.116369,0.01785 0.116369,0.750761 l 0,0.797404 -0.482118,0.179491 c -1.049333,0.390644 -1.386064,0.446888 -2.809639,0.469285 -0.7315,0.01153 -1.404815,0.007 -1.496246,-0.01074 z m 3.365008,-7.301972 c -0.114697,-1.265684 -0.631387,-2.128334 -1.520673,-2.538828 -0.382394,-0.176511 -0.473972,-0.191146 -1.179339,-0.188486 -0.959938,0.0035 -1.353345,0.140066 -1.922085,0.666618 -0.573861,0.53129 -0.919872,1.25662 -1.100118,2.306144 l -0.04281,0.249373 2.904942,0 2.904943,0 -0.04489,-0.494821 z m 14.310362,7.248207 c -0.545908,-0.0958 -1.289209,-0.317539 -1.595674,-0.476018 l -0.186172,-0.09627 0,-0.830443 0,-0.830434 0.249382,0.110702 c 1.1807,0.524116 2.232328,0.760691 3.374877,0.759209 1.40576,-0.0017 2.148982,-0.314047 2.526499,-1.061395 0.165887,-0.328404 0.115181,-0.974676 -0.10189,-1.298575 -0.30818,-0.459841 -1.118252,-0.908868 -2.890107,-1.601991 -1.755454,-0.686711 -2.511665,-1.209233 -2.904319,-2.006819 -0.291562,-0.592256 -0.339825,-1.3774 -0.127607,-2.076076 0.261573,-0.861169 1.144576,-1.593639 2.300426,-1.90824 0.605331,-0.164761 2.423708,-0.201682 3.211234,-0.06525 0.731673,0.126801 2.075522,0.547797 2.075522,0.650215 0,0.05918 -0.515797,1.299703 -0.571123,1.373613 -0.0092,0.01231 -0.328811,-0.0831 -0.710184,-0.212088 -1.04578,-0.353636 -1.7349,-0.464069 -2.642199,-0.423388 -1.097795,0.04922 -1.723654,0.313926 -1.993692,0.84324 -0.35199,0.689961 0.01725,1.43548 0.94351,1.904835 0.187783,0.09516 0.905878,0.394422 1.595769,0.66504 2.278443,0.893748 2.91372,1.303775 3.348104,2.160983 0.24342,0.480376 0.338178,1.146535 0.250075,1.758104 -0.18333,1.272539 -1.018842,2.132017 -2.492664,2.564166 -0.411049,0.120527 -0.695592,0.146339 -1.817354,0.16483 -0.912299,0.01499 -1.490934,-0.006 -1.842413,-0.06801 z m 17.397105,-0.0026 c -1.065952,-0.231913 -2.245664,-1.012092 -2.830209,-1.871691 -1.282686,-1.886274 -1.398214,-5.359064 -0.243782,-7.328564 0.357464,-0.609854 1.261453,-1.466854 1.850081,-1.753911 0.84784,-0.413475 1.21053,-0.482932 2.527,-0.483946 1.03352,-7.97e-4 1.21957,0.01647 1.6625,0.154156 0.76168,0.236783 1.29957,0.567561 1.9011,1.169106 0.81363,0.813633 1.30182,1.816401 1.48993,3.060423 0.10959,0.724673 0.0943,2.209897 -0.0299,2.911926 -0.3983,2.25069 -1.73216,3.71492 -3.77576,4.144806 -0.56955,0.119809 -1.99563,0.118517 -2.55096,-0.0026 z m 2.18798,-1.463432 c 0.90319,-0.235249 1.54226,-0.758368 1.93465,-1.583621 0.37595,-0.790663 0.47314,-1.36195 0.46609,-2.739445 -0.006,-1.099841 -0.0208,-1.245582 -0.18627,-1.795502 -0.22561,-0.749566 -0.49959,-1.21204 -0.98568,-1.663771 -1.09045,-1.013366 -3.20291,-1.011347 -4.299728,0.0043 -0.448801,0.415511 -0.737206,0.918815 -0.952358,1.661985 -0.137354,0.47445 -0.153348,0.668325 -0.153348,1.859674 0,1.479306 0.06953,1.891231 0.454351,2.693253 0.237394,0.494708 0.8068,1.108288 1.227823,1.32308 0.65406,0.333672 1.73577,0.43785 2.49447,0.240231 z M 32.893,40.850642 l 0,-7.481264 0.864504,0 0.864496,0 0,7.481264 0,7.481263 -0.864496,0 -0.864504,0 0,-7.481263 z m 5.51951,1.895251 0,-5.586013 0.724386,0 c 0.518545,0 0.73325,0.02365 0.75557,0.0831 0.01715,0.04575 0.08448,0.388391 0.149702,0.761497 l 0.118517,0.678366 0.181173,-0.250091 c 0.43453,-0.599864 1.326735,-1.15448 2.197911,-1.366274 0.560595,-0.136298 1.923039,-0.139287 2.554097,-0.0052 1.069184,0.22648 1.920742,0.836499 2.297384,1.64573 0.433465,0.931345 0.422617,0.800186 0.448222,5.419146 l 0.0233,4.206136 -0.898973,0 -0.898981,0 -0.01924,-4.106387 c -0.02209,-4.725771 0.0098,-4.474059 -0.650596,-5.140494 -0.486156,-0.490627 -0.891781,-0.627089 -1.862004,-0.626439 -1.789974,8.66e-4 -2.742868,0.692335 -3.16857,2.298173 -0.09792,0.369397 -0.116489,0.904128 -0.138905,4.000762 l -0.02591,3.574385 -0.893584,0 -0.893583,0 0,-5.586013 z m 15.10696,5.238545 c -0.07278,-0.19293 -1.017879,-2.68191 -2.100155,-5.531068 -1.082285,-2.849159 -1.967785,-5.205758 -1.967785,-5.236891 0,-0.0311 0.415755,-0.05658 0.923884,-0.05658 0.818113,0 0.929135,0.01334 0.969695,0.116376 0.12395,0.314923 2.222486,6.10039 2.53876,6.999138 0.199498,0.56692 0.464407,1.374895 0.588678,1.79551 0.12427,0.420607 0.227415,0.702949 0.229218,0.627409 0.0043,-0.197497 0.869946,-2.702879 2.197479,-6.363045 l 1.151698,-3.175388 0.951543,0 0.951542,0 -0.132658,0.34913 c -0.07296,0.192021 -1.024309,2.698244 -2.114124,5.569385 l -1.981474,5.220263 -1.036969,0.01828 -1.036967,0.01828 -0.132365,-0.350785 z m 19.872106,-5.238545 0,-5.586013 0.753205,0 0.753204,0 0.0876,1.032307 0.0876,1.032298 0.23148,-0.350673 c 0.562372,-0.851957 1.427396,-1.547307 2.22701,-1.790182 0.390357,-0.118569 0.585844,-0.134564 1.378378,-0.112798 0.50793,0.01395 0.94409,0.04592 0.969244,0.07105 0.02513,0.02513 -0.0078,0.405738 -0.07261,0.845728 l -0.118371,0.799977 -0.27223,-0.04895 c -0.149719,-0.02695 -0.601398,-0.04895 -1.003721,-0.04895 -0.688055,0 -0.758742,0.01291 -1.190067,0.217156 -0.617991,0.292672 -1.267132,0.951499 -1.596064,1.619901 -0.41903,0.85149 -0.43668,1.039465 -0.437971,4.663325 l -8.67e-4,3.241882 -0.897751,0 -0.89775,0 0,-5.586013 z m 18.420536,0 0,-5.586013 0.897751,0 0.897752,0 0,5.586013 0,5.586012 -0.897752,0 -0.897751,0 0,-5.586012 z m 17.888538,0 0,-5.586013 0.72438,0 c 0.51855,0 0.73325,0.02365 0.75558,0.0831 0.0171,0.04575 0.0845,0.388391 0.14969,0.761497 l 0.11852,0.678366 0.18117,-0.250091 c 0.43453,-0.599864 1.32674,-1.15448 2.19791,-1.366274 0.5606,-0.136298 1.92305,-0.139287 2.5541,-0.0052 1.06918,0.22648 1.92075,0.836499 2.29738,1.64573 0.43347,0.931345 0.42262,0.800186 0.44824,5.419146 l 0.0233,4.206136 -0.89897,0 -0.89899,0 -0.0192,-4.106387 c -0.0221,-4.72578 0.01,-4.474059 -0.65061,-5.140503 -0.48615,-0.490618 -0.89177,-0.627088 -1.862,-0.62643 -1.78997,8.66e-4 -2.74286,0.692335 -3.16857,2.298165 -0.0979,0.369397 -0.11649,0.904136 -0.1389,4.00077 l -0.0259,3.574385 -0.89359,0 -0.89358,0 0,-5.586013 z m -9.44302,-7.171948 c 0,-0.06759 0.30673,-0.583938 0.68163,-1.147383 0.37489,-0.563454 0.81337,-1.271221 0.97442,-1.572825 l 0.29279,-0.548361 1.05383,0 1.05384,0 0,0.164025 c 0,0.225796 -0.89357,1.325315 -1.9339,2.379604 l -0.83663,0.847877 -0.64299,0 c -0.5811,0 -0.64299,-0.01187 -0.64299,-0.122937 z m -8.093164,-0.402479 c -0.31071,-0.195079 -0.443152,-0.494717 -0.443802,-1.004051 -8.66e-4,-0.758915 0.330285,-1.130505 1.007811,-1.130505 0.724698,0 1.043693,0.394604 1.001088,1.238347 -0.0234,0.463393 -0.03864,0.504889 -0.270689,0.736933 -0.222936,0.222936 -0.284898,0.24809 -0.663697,0.269423 -0.331593,0.01871 -0.461747,-0.0043 -0.630711,-0.110147 z M 74.488825,26.75281 c -0.03657,-0.01239 -0.178712,-0.04133 -0.315875,-0.0643 l -0.249373,-0.04168 0,-0.681478 0,-0.681485 0.980881,0.0026 c 0.939368,0.0026 0.996703,-0.0052 1.354905,-0.180817 0.442044,-0.217088 0.908981,-0.693141 1.153883,-1.176428 0.205953,-0.406423 0.832843,-1.985044 0.832843,-2.097237 0,-0.04237 -0.990959,-2.543585 -2.202115,-5.558328 -1.211165,-3.014743 -2.217365,-5.534561 -2.236003,-5.599599 -0.03154,-0.109991 0.03232,-0.116957 0.913919,-0.09975 l 0.947808,0.01854 1.289339,3.358259 c 1.037609,2.702576 1.720629,4.622036 2.12804,5.980356 0.01568,0.05234 0.263158,-0.60605 0.549929,-1.463007 0.393069,-1.174591 2.445448,-6.952191 2.768124,-7.792486 0.0396,-0.103102 0.150049,-0.116368 0.968577,-0.116368 0.557919,0 0.923893,0.02573 0.923893,0.06507 0,0.07972 -4.851852,12.93603 -5.057486,13.401217 -0.63636,1.439569 -1.575961,2.367092 -2.692542,2.657926 -0.347224,0.09044 -1.847127,0.140543 -2.058747,0.0688 z M 65.46294,21.894449 c -0.802499,-0.194533 -1.460287,-0.636533 -1.854119,-1.245867 -0.323067,-0.499847 -0.466894,-0.993151 -0.508173,-1.742985 -0.113986,-2.070514 1.111763,-3.257825 3.740671,-3.623393 0.256018,-0.03561 1.161256,-0.06533 2.011628,-0.06603 l 1.546128,-0.0017 -5.37e-4,-0.515373 c -8.66e-4,-1.16026 -0.293927,-2.024937 -0.815661,-2.408623 -0.812047,-0.597187 -2.383381,-0.536464 -4.058165,0.156816 -0.319116,0.132094 -0.604734,0.240179 -0.634705,0.240179 -0.04896,0 -0.542443,-1.164878 -0.542443,-1.280466 0,-0.08258 0.743032,-0.426066 1.305127,-0.603287 0.992951,-0.313068 1.617674,-0.39502 2.751376,-0.36094 0.882474,0.02651 1.108825,0.0564 1.573449,0.207859 0.958508,0.312384 1.572071,0.895827 1.878407,1.786187 0.235188,0.683609 0.271771,1.4175 0.271961,5.456604 l 2e-4,3.90921 -0.678774,-0.01898 -0.678784,-0.01898 -0.05355,-0.266001 c -0.02946,-0.146305 -0.101301,-0.484093 -0.15971,-0.750639 l -0.106187,-0.484631 -0.583955,0.562934 c -0.948457,0.914318 -1.653841,1.175085 -3.152851,1.165545 -0.495307,-0.0035 -1.034637,-0.04532 -1.251353,-0.09787 z m 2.950866,-1.556007 c 1.327386,-0.49664 1.918767,-1.477867 1.918767,-3.183654 l 0,-0.758612 -1.512882,0.03388 c -2.068495,0.04635 -2.839792,0.249641 -3.411565,0.899207 -0.324436,0.368583 -0.462803,0.782067 -0.459147,1.372044 0.0087,1.360183 0.862529,1.967914 2.560075,1.821635 0.294101,-0.0253 0.701242,-0.10838 0.904752,-0.184517 z m 20.898216,1.560652 c -1.065952,-0.231914 -2.245673,-1.012092 -2.830217,-1.8717 -1.282685,-1.886266 -1.398212,-5.359056 -0.243784,-7.328555 0.357466,-0.609863 1.261455,-1.466855 1.850081,-1.753912 0.847842,-0.413474 1.210533,-0.482932 2.527012,-0.483945 1.033511,-7.98e-4 1.219561,0.01646 1.662497,0.154155 0.761688,0.236782 1.299564,0.567561 1.901109,1.169106 0.813624,0.813633 1.301816,1.816402 1.489929,3.060415 0.109575,0.72468 0.09432,2.209904 -0.02989,2.911935 -0.398295,2.250681 -1.732145,3.714919 -3.775755,4.144796 -0.569545,0.119809 -1.995632,0.118527 -2.55096,-0.0026 z m 2.187985,-1.463441 c 0.903183,-0.23525 1.542255,-0.758361 1.93464,-1.583613 0.375948,-0.790663 0.473142,-1.361951 0.466097,-2.739445 -0.0052,-1.09984 -0.02071,-1.245582 -0.186267,-1.795502 -0.225614,-0.749574 -0.499604,-1.21204 -0.98569,-1.66377 -1.090447,-1.013366 -3.202909,-1.011347 -4.299725,0.0043 -0.448802,0.415513 -0.737209,0.918825 -0.952366,1.661995 -0.137354,0.47445 -0.15334,0.668325 -0.15334,1.859674 0,1.479306 0.06949,1.89123 0.454347,2.693253 0.237399,0.494707 0.806797,1.108279 1.227828,1.32308 0.654054,0.333672 1.735769,0.43784 2.494476,0.240222 z m -46.171481,-6.085313 0,-7.448018 1.352817,0 1.352818,0 2.351253,6.118006 c 1.293186,3.364896 2.369987,6.095555 2.392888,6.068131 0.02287,-0.02747 1.053483,-2.668299 2.2902,-5.868624 1.236727,-3.200316 2.292549,-5.9309764 2.346288,-6.0681314 l 0.0977,-0.2493816 1.322784,0 1.322777,0 0,7.448018 0,7.448017 -0.89775,0 -0.897752,0 3.99e-4,-5.070639 c 1.99e-4,-2.788843 0.03102,-5.71063 0.06854,-6.492844 0.03743,-0.7822246 0.05831,-1.4320152 0.04636,-1.4439818 -0.01196,-0.011958 -1.154974,2.9098138 -2.540024,6.4928548 l -2.518294,6.51461 -0.74123,0 -0.741238,0 -2.519801,-6.581035 c -1.3859,-3.619571 -2.523076,-6.5746754 -2.52708,-6.5668946 -0.0043,0.00781 0.0143,0.2984415 0.04055,0.6459008 0.02634,0.3474674 0.05069,3.3025618 0.05407,6.5668938 l 0.006,5.935135 -0.831248,0 -0.831258,0 0,-7.448017 z m 53.266597,1.862004 0,-5.586012 0.75321,0 0.753207,0 0.0876,1.032306 0.0876,1.032298 0.23147,-0.350673 c 0.56238,-0.851957 1.42739,-1.547307 2.227,-1.790182 0.39037,-0.118568 0.58585,-0.134564 1.37838,-0.112798 0.50793,0.01395 0.94409,0.04592 0.96926,0.07114 0.0251,0.02513 -0.008,0.405729 -0.0726,0.845719 l -0.11837,0.799986 -0.27224,-0.04896 c -0.14971,-0.02695 -0.60139,-0.04905 -1.00371,-0.04905 -0.68806,0 -0.75875,0.01291 -1.19007,0.217166 -0.618,0.29267 -1.26713,0.951498 -1.59606,1.619901 -0.41903,0.85148 -0.43669,1.039455 -0.43798,4.663324 l -8.7e-4,3.241882 -0.897756,0 -0.897751,0 0,-5.586013 z"
     id="path9510"
     inkscape:connector-curvature="0" />
  <path
     style="fill:#ffffff"
     d="m 67.443089,110.24429 c -1.233957,-0.23488 -2.074791,-0.85023 -2.574752,-1.88426 -0.341618,-0.70658 -0.482456,-1.50216 -0.433038,-2.44624 0.07003,-1.3381 0.473703,-2.34117 1.224951,-3.04392 0.604422,-0.56542 1.31245,-0.82021 2.279159,-0.82021 1.017846,0 1.622716,0.22914 2.250169,0.85241 0.691146,0.68654 0.985917,1.52946 0.987111,2.82273 l 5.64e-4,0.67359 -2.717945,0 -2.717944,0 3.78e-4,0.24815 c 1.87e-4,0.13647 0.0431,0.42655 0.09538,0.64463 0.231588,0.96604 0.796802,1.57981 1.664674,1.80766 0.800258,0.21009 2.136162,0.0427 3.26191,-0.40852 0.07604,-0.0306 0.0827,0.0127 0.0827,0.53365 l 0,0.5668 -0.342696,0.12759 c -0.74587,0.27768 -0.985219,0.31765 -1.997101,0.33356 -0.519955,0.008 -0.99855,0.006 -1.063544,-0.008 z m 2.391867,-5.19027 c -0.08152,-0.89967 -0.448797,-1.51283 -1.080906,-1.80461 -0.271804,-0.12547 -0.336897,-0.13588 -0.838276,-0.13398 -0.682328,0.003 -0.961967,0.0995 -1.366231,0.47384 -0.407903,0.37763 -0.653847,0.89321 -0.781967,1.6392 l -0.03044,0.17726 2.064847,0 2.064846,0 -0.03186,-0.35171 z m 10.171876,5.15205 c -0.388034,-0.0681 -0.916379,-0.2257 -1.134211,-0.33835 l -0.132333,-0.0684 0,-0.59028 0,-0.59028 0.17726,0.0786 c 0.839248,0.37255 1.586749,0.5407 2.39888,0.53964 0.999222,-10e-4 1.527503,-0.22322 1.795849,-0.75444 0.117921,-0.23343 0.08186,-0.69279 -0.07242,-0.92304 -0.219057,-0.32685 -0.794855,-0.64601 -2.054306,-1.1387 -1.247786,-0.48812 -1.785302,-0.85952 -2.064399,-1.42645 -0.207245,-0.42097 -0.241548,-0.97907 -0.09071,-1.47569 0.185927,-0.61211 0.813574,-1.13278 1.635151,-1.35638 0.430274,-0.11711 1.722785,-0.14337 2.282564,-0.0463 0.520076,0.0901 1.475289,0.38938 1.475289,0.46216 0,0.0422 -0.36663,0.92385 -0.405957,0.97639 -0.0067,0.009 -0.233718,-0.0591 -0.504801,-0.15076 -0.743343,-0.25137 -1.233177,-0.32987 -1.87809,-0.30095 -0.780314,0.0349 -1.225178,0.22315 -1.417122,0.59938 -0.250198,0.49045 0.01227,1.02036 0.670652,1.35398 0.133472,0.0676 0.643899,0.28036 1.134281,0.4727 1.619529,0.63529 2.071083,0.92673 2.379842,1.53604 0.173031,0.34147 0.24038,0.81497 0.177755,1.24968 -0.130312,0.90453 -0.724195,1.51545 -1.771795,1.82261 -0.292171,0.0857 -0.494428,0.10407 -1.291783,0.11711 -0.648464,0.0109 -1.059763,-0.004 -1.309596,-0.0483 z m 12.365954,-0.002 c -0.757687,-0.16485 -1.596238,-0.7194 -2.011735,-1.33041 -0.91174,-1.34077 -0.993855,-3.80925 -0.173287,-5.20919 0.254094,-0.43348 0.896653,-1.04264 1.315052,-1.24668 0.602651,-0.2939 0.860454,-0.34328 1.796208,-0.344 0.73463,-5.5e-4 0.866872,0.0121 1.181716,0.10962 0.541404,0.16831 0.923727,0.40341 1.351307,0.831 0.57834,0.57833 0.92534,1.29112 1.05905,2.17536 0.0779,0.5151 0.067,1.57081 -0.0212,2.06981 -0.2831,1.59979 -1.23122,2.64058 -2.683821,2.94614 -0.404836,0.0851 -1.418506,0.0843 -1.813231,-0.002 z m 1.555227,-1.04023 c 0.64199,-0.16721 1.096246,-0.53905 1.375154,-1.12564 0.26722,-0.562 0.33631,-0.96808 0.3313,-1.94721 -0.004,-0.78177 -0.0147,-0.88538 -0.1324,-1.27625 -0.16036,-0.53279 -0.355119,-0.86153 -0.700631,-1.18262 -0.7751,-0.7203 -2.276643,-0.71886 -3.056269,0.003 -0.319006,0.29534 -0.524011,0.6531 -0.676942,1.18134 -0.09764,0.33725 -0.108991,0.47506 -0.108991,1.32186 0,1.05151 0.04941,1.34431 0.322959,1.91438 0.16874,0.35165 0.573473,0.78777 0.872745,0.94046 0.464905,0.23717 1.233791,0.31122 1.773083,0.17074 z M 44.376,104.81473 l 0,-5.317705 0.614494,0 0.614493,0 0,5.317705 0,5.31774 -0.614493,0 -0.614494,0 0,-5.31774 z m 3.923296,1.34716 0,-3.97056 0.514899,0 c 0.368583,0 0.521195,0.0169 0.537064,0.0591 0.01218,0.0325 0.06008,0.27607 0.106399,0.54129 l 0.08424,0.48218 0.128771,-0.17778 c 0.308873,-0.42638 0.943059,-0.82062 1.562289,-0.97115 0.398476,-0.097 1.366907,-0.099 1.815465,-0.004 0.759981,0.16096 1.365276,0.59458 1.632989,1.16979 0.30811,0.66201 0.300401,0.56877 0.318601,3.85196 l 0.01657,2.98973 -0.638998,0 -0.639001,0 -0.01365,-2.91885 c -0.01571,-3.35909 0.0069,-3.18017 -0.462452,-3.65388 -0.345557,-0.34872 -0.633876,-0.44574 -1.32352,-0.44528 -1.27232,9.5e-4 -1.949639,0.49213 -2.252231,1.63357 -0.06961,0.26256 -0.08282,0.64265 -0.09874,2.84376 l -0.01839,2.54068 -0.635163,0 -0.635167,0 0,-3.97055 z m 10.738101,3.72359 c -0.05174,-0.13713 -0.723509,-1.90631 -1.4928,-3.93152 -0.769291,-2.02519 -1.398709,-3.70027 -1.398709,-3.72241 0,-0.022 0.295518,-0.0402 0.656703,-0.0402 0.581515,0 0.660431,0.009 0.689261,0.0827 0.0881,0.22384 1.579751,4.33619 1.804564,4.97503 0.141805,0.40297 0.330099,0.97726 0.418433,1.27625 0.08834,0.29897 0.16165,0.49965 0.162931,0.44596 0.0032,-0.14038 0.61836,-1.92122 1.561975,-4.5229 l 0.818636,-2.25707 0.676361,0 0.676358,0 -0.09428,0.24816 c -0.05186,0.13648 -0.728089,1.91794 -1.502731,3.95876 l -1.408441,3.71058 -0.737083,0.013 -0.737081,0.013 -0.09409,-0.24933 z m 14.125194,-3.72359 0,-3.97056 0.535385,0 0.535382,0 0.06226,0.73377 0.06226,0.73376 0.164531,-0.24926 c 0.399739,-0.60557 1.014598,-1.09984 1.58297,-1.27247 0.277466,-0.0844 0.416423,-0.0957 0.979759,-0.0801 0.36104,0.01 0.671065,0.0326 0.688947,0.0506 0.01789,0.0179 -0.0055,0.2884 -0.05163,0.60114 l -0.08413,0.56864 -0.193503,-0.0348 c -0.106432,-0.0193 -0.42748,-0.0348 -0.713454,-0.0348 -0.489069,0 -0.539317,0.009 -0.8459,0.15435 -0.439273,0.20802 -0.900685,0.67631 -1.13449,1.15144 -0.297849,0.60523 -0.310399,0.73883 -0.311316,3.3147 l -7.54e-4,2.30435 -0.638125,0 -0.638128,0 0,-3.97058 z m 13.093407,0 0,-3.97056 0.638127,0 0.638128,0 0,3.97056 0,3.97058 -0.638128,0 -0.638127,0 0,-3.97058 z m 12.715259,0 0,-3.97056 0.514903,0 c 0.36859,0 0.5212,0.0169 0.53706,0.0591 0.0122,0.0325 0.0601,0.27607 0.10643,0.54129 l 0.0842,0.48218 0.12877,-0.17778 c 0.30887,-0.42638 0.94306,-0.82062 1.56229,-0.97115 0.39847,-0.097 1.36691,-0.099 1.81546,-0.004 0.75998,0.16096 1.3653,0.59458 1.63299,1.16979 0.30812,0.66201 0.30041,0.56877 0.31861,3.85196 l 0.0166,2.98973 -0.639,0 -0.639,0 -0.0137,-2.91885 c -0.0157,-3.35909 0.006,-3.18017 -0.46245,-3.65389 -0.34556,-0.34874 -0.63387,-0.44573 -1.32351,-0.44527 -1.27233,9.5e-4 -1.94965,0.49213 -2.25224,1.63355 -0.0696,0.26258 -0.0828,0.64267 -0.0987,2.84378 l -0.0183,2.54068 -0.63517,0 -0.635173,0 0,-3.97056 z m -6.712142,-5.09813 c 0,-0.0481 0.218025,-0.41505 0.484502,-0.81556 0.266476,-0.400505 0.578158,-0.903595 0.692624,-1.117955 l 0.208118,-0.38979 0.749071,0 0.749071,0 0,0.11661 c 0,0.16049 -0.635155,0.94203 -1.374619,1.691445 l -0.594691,0.60265 -0.457037,0 c -0.413052,0 -0.457039,-0.008 -0.457039,-0.0874 z m -5.75266,-0.28609 c -0.220851,-0.13868 -0.314992,-0.35164 -0.315461,-0.7137 -7.55e-4,-0.539425 0.234769,-0.803555 0.716362,-0.803555 0.515113,0 0.741856,0.28048 0.711572,0.880215 -0.01664,0.32937 -0.02745,0.35888 -0.192402,0.52381 -0.158463,0.15848 -0.202508,0.17634 -0.471765,0.19152 -0.235692,0.0131 -0.328209,-0.003 -0.448306,-0.0784 z M 69.002953,91.383951 c -1.233955,-0.234866 -2.074791,-0.850211 -2.574752,-1.884263 -0.341618,-0.706564 -0.482454,-1.502152 -0.433039,-2.446238 0.07003,-1.338096 0.473707,-2.341165 1.224954,-3.043919 0.60442,-0.565403 1.312448,-0.820203 2.279158,-0.820203 1.017847,0 1.622715,0.22913 2.250168,0.85241 0.691146,0.686538 0.985917,1.529464 0.987112,2.822724 l 5.65e-4,0.673579 -2.717947,0 -2.717944,0 3.79e-4,0.248151 c 1.88e-4,0.136492 0.0431,0.426571 0.09538,0.644635 0.231587,0.966048 0.796803,1.579811 1.664676,1.807666 0.800257,0.210107 2.136161,0.04277 3.26191,-0.408511 0.07603,-0.0305 0.0827,0.01267 0.0827,0.53364 l 0,0.566801 -0.342697,0.127584 c -0.745869,0.277674 -0.985216,0.317644 -1.9971,0.333566 -0.519954,0.0082 -0.998549,0.0051 -1.063543,-0.0082 z m 2.391867,-5.190269 c -0.08152,-0.899669 -0.448795,-1.512834 -1.080904,-1.804616 -0.271805,-0.125465 -0.336898,-0.135871 -0.838278,-0.133977 -0.682327,0.0031 -0.961968,0.09952 -1.366231,0.473836 -0.407903,0.377642 -0.653844,0.893203 -0.781966,1.639213 l -0.03046,0.17726 2.064846,0 2.064847,0 -0.03187,-0.351716 z m 14.785775,5.150178 c -0.757688,-0.164848 -1.596238,-0.719396 -2.011733,-1.330403 -0.91174,-1.340771 -0.993857,-3.809256 -0.173286,-5.209181 0.254091,-0.433492 0.896652,-1.042646 1.315051,-1.246694 0.60265,-0.293889 0.860454,-0.343264 1.796207,-0.343984 0.734629,-5.67e-4 0.866874,0.0116 1.181715,0.109583 0.541405,0.168303 0.923734,0.403423 1.351311,0.831007 0.578336,0.578334 0.925342,1.291101 1.059053,2.175354 0.07789,0.515105 0.06703,1.570814 -0.02126,2.069815 -0.283107,1.599798 -1.231221,2.640588 -2.683822,2.946153 -0.404837,0.08512 -1.418506,0.08422 -1.813236,-0.0019 z m 1.555229,-1.040213 c 0.641988,-0.167219 1.096243,-0.539053 1.375151,-1.125647 0.267226,-0.562006 0.336313,-0.968084 0.331302,-1.947207 -0.0041,-0.781773 -0.01474,-0.885368 -0.132397,-1.276255 -0.160365,-0.532798 -0.355116,-0.86152 -0.700632,-1.182612 -0.775101,-0.720308 -2.276646,-0.718878 -3.056271,0.0031 -0.319006,0.295349 -0.524009,0.653107 -0.676944,1.181356 -0.09764,0.337234 -0.108992,0.475043 -0.108992,1.32186 0,1.051502 0.04941,1.344297 0.32296,1.914381 0.168741,0.351636 0.573471,0.787774 0.872744,0.940448 0.464905,0.237178 1.233791,0.311221 1.773084,0.170756 z m -34.520591,-4.325475 0,-5.294087 0.961591,0 0.96159,0 1.671283,4.348703 c 0.919205,2.391786 1.684597,4.33276 1.700873,4.313263 0.01626,-0.01946 0.748825,-1.896647 1.627891,-4.17144 0.879067,-2.274805 1.629551,-4.21577 1.667748,-4.313265 l 0.06943,-0.177261 0.94024,0 0.940241,0 0,5.294087 0,5.294087 -0.638126,0 -0.638126,0 1.88e-4,-3.604235 c 1.42e-4,-1.982322 0.02204,-4.05914 0.04868,-4.615148 0.02663,-0.556008 0.04146,-1.017875 0.03296,-1.026389 -0.0085,-0.0082 -0.820964,2.068314 -1.805462,4.615158 l -1.790013,4.630614 -0.526876,0 -0.526871,0 -1.791093,-4.677829 c -0.985099,-2.572809 -1.793415,-4.673311 -1.796256,-4.667777 -0.0029,0.0051 0.01012,0.212125 0.02883,0.459102 0.0187,0.246977 0.03599,2.347479 0.03844,4.667776 l 0.0043,4.218728 -0.590858,0 -0.590857,0 0,-5.294087 z m 21.507222,1.323522 0,-3.970567 0.514898,0 c 0.368587,0 0.521198,0.01682 0.537067,0.05909 0.01218,0.03253 0.06007,0.276075 0.106399,0.541282 l 0.08423,0.482189 0.128773,-0.177769 c 0.308875,-0.426386 0.943058,-0.820608 1.56229,-0.971157 0.398478,-0.0969 1.366908,-0.09902 1.815465,-0.0041 0.759981,0.160985 1.365279,0.5946 1.632988,1.169803 0.308112,0.662004 0.300402,0.568776 0.318605,3.85195 l 0.01656,2.989742 -0.638997,0 -0.639,0 -0.01365,-2.918842 c -0.01571,-3.359101 0.0069,-3.180186 -0.462452,-3.653892 -0.345559,-0.348738 -0.633877,-0.445733 -1.323521,-0.445269 -1.27232,9.43e-4 -1.949637,0.492121 -2.252233,1.633547 -0.06961,0.262573 -0.0828,0.642657 -0.09875,2.843762 l -0.01839,2.540694 -0.635163,0 -0.63517,0 0,-3.970565 z m 18.056614,0 0,-3.970567 0.535382,0 0.535385,0 0.06226,0.733768 0.06226,0.733766 0.164533,-0.249267 c 0.399737,-0.605576 1.014596,-1.099834 1.582968,-1.272465 0.27747,-0.08433 0.41642,-0.09566 0.97976,-0.08017 0.36104,0.01012 0.67107,0.03263 0.68895,0.05056 0.0179,0.01783 -0.005,0.288396 -0.0516,0.601146 l -0.0841,0.568626 -0.1935,-0.03487 c -0.10643,-0.01915 -0.42748,-0.03487 -0.71345,-0.03487 -0.48907,0 -0.53932,0.0091 -0.8459,0.154357 -0.439275,0.20803 -0.900688,0.676335 -1.134494,1.15144 -0.297849,0.60524 -0.310399,0.738853 -0.311315,3.314713 l -7.53e-4,2.304345 -0.638129,0 -0.638125,0 0,-3.970564 z"
     id="path10184"
     inkscape:connector-curvature="0" />
</svg>
