<?xml version="1.0" encoding="UTF-8" standalone="no"?>
<!-- Created with Inkscape (http://www.inkscape.org/) -->

<svg
   xmlns:dc="http://purl.org/dc/elements/1.1/"
   xmlns:cc="http://creativecommons.org/ns#"
   xmlns:rdf="http://www.w3.org/1999/02/22-rdf-syntax-ns#"
   xmlns:svg="http://www.w3.org/2000/svg"
   xmlns="http://www.w3.org/2000/svg"
   xmlns:sodipodi="http://sodipodi.sourceforge.net/DTD/sodipodi-0.dtd"
   xmlns:inkscape="http://www.inkscape.org/namespaces/inkscape"
   width="150"
   height="150"
   viewBox="0 0 150 150"
   id="svg4488"
   version="1.1"
   inkscape:version="0.91 r13725"
   sodipodi:docname="inv_size.svg">
  <defs
     id="defs4490">
    <clipPath
       clipPathUnits="userSpaceOnUse"
       id="clipPath8793">
      <rect
         style="opacity:1;fill:#ff0000;fill-opacity:1;stroke:none;stroke-width:2;stroke-miterlimit:4;stroke-dasharray:6, 6;stroke-dashoffset:0;stroke-opacity:1"
         id="rect8795"
         width="246.77966"
         height="263.05084"
         x="187.11864"
         y="37.966103" />
    </clipPath>
    <clipPath
       clipPathUnits="userSpaceOnUse"
       id="clipPath8793-9">
      <rect
         style="opacity:1;fill:#ff0000;fill-opacity:1;stroke:none;stroke-width:2;stroke-miterlimit:4;stroke-dasharray:6, 6;stroke-dashoffset:0;stroke-opacity:1"
         id="rect8795-2"
         width="246.77966"
         height="263.05084"
         x="187.11864"
         y="37.966103" />
    </clipPath>
    <clipPath
       clipPathUnits="userSpaceOnUse"
       id="clipPath8793-2">
      <rect
         style="opacity:1;fill:#ff0000;fill-opacity:1;stroke:none;stroke-width:2;stroke-miterlimit:4;stroke-dasharray:6, 6;stroke-dashoffset:0;stroke-opacity:1"
         id="rect8795-3"
         width="246.77966"
         height="263.05084"
         x="187.11864"
         y="37.966103" />
    </clipPath>
    <clipPath
       clipPathUnits="userSpaceOnUse"
       id="clipPath8793-9-7">
      <rect
         style="opacity:1;fill:#ff0000;fill-opacity:1;stroke:none;stroke-width:2;stroke-miterlimit:4;stroke-dasharray:6, 6;stroke-dashoffset:0;stroke-opacity:1"
         id="rect8795-2-5"
         width="246.77966"
         height="263.05084"
         x="187.11864"
         y="37.966103" />
    </clipPath>
  </defs>
  <sodipodi:namedview
     id="base"
     pagecolor="#ffffff"
     bordercolor="#666666"
     borderopacity="1.0"
     inkscape:pageopacity="0.0"
     inkscape:pageshadow="2"
     inkscape:zoom="2.8"
     inkscape:cx="58.645797"
     inkscape:cy="86.381255"
     inkscape:document-units="px"
     inkscape:current-layer="layer1"
     showgrid="false"
     units="px"
     inkscape:window-width="1360"
     inkscape:window-height="744"
     inkscape:window-x="0"
     inkscape:window-y="24"
     inkscape:window-maximized="1" />
  <metadata
     id="metadata4493">
    <rdf:RDF>
      <cc:Work
         rdf:about="">
        <dc:format>image/svg+xml</dc:format>
        <dc:type
           rdf:resource="http://purl.org/dc/dcmitype/StillImage" />
        <dc:title />
      </cc:Work>
    </rdf:RDF>
  </metadata>
  <g
     inkscape:label="Layer 1"
     inkscape:groupmode="layer"
     id="layer1"
     transform="translate(0,-902.36216)">
    <g
       id="g4846">
      <circle
         r="74.496132"
         cy="977.36224"
         cx="75"
         id="path5036"
         style="opacity:1;fill:none;fill-opacity:1;stroke:#ffffff;stroke-width:1.0077374;stroke-miterlimit:4;stroke-dasharray:3.0232122, 3.02321220000000013;stroke-dashoffset:0;stroke-opacity:1" />
      <circle
         r="57.559708"
         cy="994.29865"
         cx="75.229248"
         id="path5036-3"
         style="opacity:1;fill:none;fill-opacity:1;stroke:#ffffff;stroke-width:1.0077374;stroke-miterlimit:4;stroke-dasharray:3.0232122, 3.02321220000000013;stroke-dashoffset:0;stroke-opacity:1" />
      <circle
         r="39.899849"
         cy="1011.9585"
         cx="74.486229"
         id="path5036-3-6"
         style="opacity:1;fill:none;fill-opacity:1;stroke:#ffffff;stroke-width:1.0077374;stroke-miterlimit:4;stroke-dasharray:3.0232122, 3.02321220000000013;stroke-dashoffset:0;stroke-opacity:1" />
      <circle
         r="25.045141"
         cy="1026.7513"
         cx="74.098122"
         id="path5036-3-6-7"
         style="opacity:1;fill:#000000;fill-opacity:0;stroke:#ffffff;stroke-width:1.13140666;stroke-miterlimit:4;stroke-dasharray:3.3942201, 3.39422010000000007;stroke-dashoffset:0;stroke-opacity:1" />
      <text
         sodipodi:linespacing="125%"
         id="text4372"
         y="925.25299"
         x="35.629753"
         style="font-style:normal;font-weight:normal;font-size:10.60505486px;line-height:125%;font-family:sans-serif;letter-spacing:0px;word-spacing:0px;fill:#ffffff;fill-opacity:1;stroke:none;stroke-width:1px;stroke-linecap:butt;stroke-linejoin:miter;stroke-opacity:1;"
         xml:space="preserve"><tspan
           style="font-style:normal;font-variant:normal;font-weight:normal;font-stretch:normal;font-family:'Open Sans';-inkscape-font-specification:'Open Sans';fill:#ffffff;"
           y="925.25299"
           x="35.629753"
           id="tspan4374"
           sodipodi:role="line">Mayor inversión</tspan></text>
      <text
         sodipodi:linespacing="125%"
         id="text4372-3"
         y="988.60425"
         x="48.57291"
         style="font-style:normal;font-weight:normal;font-size:6.8941021px;line-height:125%;font-family:sans-serif;letter-spacing:0px;word-spacing:0px;fill:#ffffff;fill-opacity:1;stroke:none;stroke-width:1px;stroke-linecap:butt;stroke-linejoin:miter;stroke-opacity:1;"
         xml:space="preserve"><tspan
           style="font-style:normal;font-variant:normal;font-weight:normal;font-stretch:normal;font-family:'Open Sans';-inkscape-font-specification:'Open Sans';fill:#ffffff;"
           y="988.60425"
           x="48.57291"
           id="tspan4374-1"
           sodipodi:role="line">Menor inversión</tspan></text>
      <g
         style="stroke:none;stroke-opacity:1;fill:#ffffff;fill-opacity:1"
         id="g6291">
        <rect
           style="opacity:1;fill:#ffffff;fill-opacity:1;stroke:none;stroke-width:2;stroke-miterlimit:4;stroke-dasharray:6, 6;stroke-dashoffset:0;stroke-opacity:1"
           id="rect8839"
           width="101.23414"
           height="3.527081"
           x="24.26573"
           y="929.81305" />
        <path
           style="fill:#ffffff;stroke:none;stroke-opacity:1;fill-opacity:1"
           d="m 120.5465,938.08148 c -0.27323,-0.09 -0.41377,-0.1943 -0.79458,-0.5877 -0.45412,-0.4691 -0.59562,-0.8126 -0.5175,-1.256 0.075,-0.4258 0.0693,-0.4192 2.3061,-2.66049 l 2.08581,-2.09002 -2.08581,-2.09 c -1.61326,-1.6165 -2.10564,-2.12979 -2.17335,-2.26562 -0.11996,-0.24072 -0.16975,-0.53954 -0.13011,-0.78165 0.0563,-0.34378 0.15721,-0.50419 0.58922,-0.93638 0.48814,-0.48832 0.63968,-0.56558 1.11382,-0.56776 0.55104,-0.002 0.35169,-0.17302 3.5768,3.05832 3.23408,3.24031 2.97855,2.93292 2.97855,3.58309 0,0.65018 0.25553,0.34278 -2.97855,3.58311 -3.1615,3.1676 -3.00604,3.0321 -3.51192,3.0625 -0.19269,0.012 -0.30676,0 -0.45848,-0.052 z"
           id="path6209-3"
           inkscape:connector-curvature="0" />
        <path
           style="fill:#ffffff;stroke:none;stroke-opacity:1;fill-opacity:1"
           d="m 28.668092,938.08148 c 0.273225,-0.09 0.413763,-0.1943 0.794567,-0.5877 0.454113,-0.4691 0.59561,-0.8126 0.517492,-1.256 -0.075,-0.4258 -0.0693,-0.4192 -2.306063,-2.66049 l -2.085777,-2.09002 2.085777,-2.09 c 1.613234,-1.6165 2.105606,-2.12979 2.173315,-2.26562 0.119958,-0.24072 0.169747,-0.53954 0.130108,-0.78165 -0.0563,-0.34378 -0.157208,-0.50419 -0.589211,-0.93638 -0.488132,-0.48832 -0.63967,-0.56558 -1.113802,-0.56776 -0.551031,-0.002 -0.351684,-0.17302 -3.576742,3.05832 -3.234028,3.24031 -2.978502,2.93292 -2.978502,3.58309 0,0.65018 -0.255526,0.34278 2.978502,3.58311 3.161449,3.1676 3.005991,3.0321 3.511863,3.0625 0.192687,0.012 0.306755,0 0.458473,-0.052 z"
           id="path6209-3-6"
           inkscape:connector-curvature="0" />
      </g>
      <g
         style="fill:#ffffff"
         id="g6286">
        <rect
           style="opacity:1;fill:#ffffff;fill-opacity:1;stroke:none;stroke-width:2;stroke-miterlimit:4;stroke-dasharray:6, 6;stroke-dashoffset:0;stroke-opacity:1"
           id="rect8839-8"
           width="56.530849"
           height="3.527081"
           x="46.592293"
           y="995.14203" />
        <path
           style="fill:#ffffff"
           d="m 98.46851,1003.6135 c -0.27323,-0.09 -0.41377,-0.1943 -0.794578,-0.5877 -0.454124,-0.4691 -0.595624,-0.8126 -0.517503,-1.256 0.07501,-0.4258 0.06934,-0.4192 2.306101,-2.66055 l 2.08581,-2.09002 -2.08581,-2.09 c -1.613265,-1.6165 -2.105642,-2.12979 -2.173357,-2.26562 -0.11996,-0.24072 -0.169742,-0.53954 -0.130108,-0.78165 0.05629,-0.34378 0.157216,-0.50419 0.58922,-0.93638 0.488145,-0.48832 0.639685,-0.56558 1.113825,-0.56776 0.55104,-0.002 0.35169,-0.17302 3.5768,3.05832 3.23408,3.24031 2.97855,2.93292 2.97855,3.58309 0,0.65018 0.25553,0.34278 -2.97855,3.58317 -3.1615,3.1676 -3.00604,3.0321 -3.51192,3.0625 -0.19269,0.012 -0.30676,0 -0.45848,-0.052 z"
           id="path6209"
           inkscape:connector-curvature="0" />
        <path
           style="fill:#ffffff"
           d="m 49.810596,1003.6135 c 0.273225,-0.09 0.413763,-0.1943 0.794567,-0.5877 0.454113,-0.4691 0.59561,-0.8126 0.517492,-1.256 -0.075,-0.4258 -0.0693,-0.4192 -2.306063,-2.66056 l -2.085777,-2.09002 2.085777,-2.09 c 1.613234,-1.6165 2.105606,-2.12979 2.173315,-2.26562 0.119958,-0.24072 0.169747,-0.53954 0.130108,-0.78165 -0.0563,-0.34378 -0.157208,-0.50419 -0.589211,-0.93638 -0.488132,-0.48832 -0.63967,-0.56558 -1.113802,-0.56776 -0.551031,-0.002 -0.351684,-0.17302 -3.576742,3.05832 -3.234028,3.24031 -2.978502,2.93292 -2.978502,3.58309 0,0.65018 -0.255526,0.34278 2.978502,3.58308 3.161449,3.1677 3.005991,3.0322 3.511863,3.0626 0.192687,0.012 0.306755,0 0.458473,-0.052 z"
           id="path6209-3-6-7"
           inkscape:connector-curvature="0" />
      </g>
    </g>
  </g>
</svg>
