<?xml version="1.0" encoding="UTF-8" standalone="no"?>
<!-- Created with Inkscape (http://www.inkscape.org/) -->

<svg
   xmlns:dc="http://purl.org/dc/elements/1.1/"
   xmlns:cc="http://creativecommons.org/ns#"
   xmlns:rdf="http://www.w3.org/1999/02/22-rdf-syntax-ns#"
   xmlns:svg="http://www.w3.org/2000/svg"
   xmlns="http://www.w3.org/2000/svg"
   xmlns:sodipodi="http://sodipodi.sourceforge.net/DTD/sodipodi-0.dtd"
   xmlns:inkscape="http://www.inkscape.org/namespaces/inkscape"
   id="svg8145"
   version="1.1"
   inkscape:version="0.91 r13725"
   width="130"
   height="148.53"
   viewBox="0 0 130 148.53"
   sodipodi:docname="clic.svg">
  <metadata
     id="metadata8151">
    <rdf:RDF>
      <cc:Work
         rdf:about="">
        <dc:format>image/svg+xml</dc:format>
        <dc:type
           rdf:resource="http://purl.org/dc/dcmitype/StillImage" />
        <dc:title></dc:title>
      </cc:Work>
    </rdf:RDF>
  </metadata>
  <defs
     id="defs8149" />
  <sodipodi:namedview
     pagecolor="#ffffff"
     bordercolor="#666666"
     borderopacity="1"
     objecttolerance="10"
     gridtolerance="10"
     guidetolerance="10"
     inkscape:pageopacity="0"
     inkscape:pageshadow="2"
     inkscape:window-width="1360"
     inkscape:window-height="744"
     id="namedview8147"
     showgrid="false"
     inkscape:zoom="0.65186406"
     inkscape:cx="-32.0009"
     inkscape:cy="70.237134"
     inkscape:window-x="0"
     inkscape:window-y="24"
     inkscape:window-maximized="1"
     inkscape:current-layer="svg8145" />
  <path
     style="fill:#ffffff"
     d="m 52.960184,147.5709 c -2.472184,-5.83133 -5.712195,-13.18328 -5.88416,-13.35182 -0.11826,-0.11591 -2.00398,1.51683 -4.190485,3.62831 l -3.97548,3.83905 -0.08652,-5.93409 c -0.06469,-4.43649 -0.185085,-5.93217 -0.47706,-5.92649 -0.21479,0.004 -0.963,0.14799 -1.66268,0.31959 -1.77328,0.43492 -8.4969,0.43701 -10.97714,0.003 C 10.279189,127.45193 -0.88723694,113.40368 0.05552055,97.8778 0.88310304,84.2487 9.7191869,73.20057 22.84914,69.37796 c 3.285739,-0.9566 10.881479,-1.22003 14.298994,-0.4959 1.30491,0.27649 2.4637,0.3968 2.57508,0.26737 0.152915,-0.1777 8.46394,-21.35873 9.072115,-23.1207 0.06292,-0.18228 -0.990595,-0.86658 -2.341135,-1.52067 -6.351165,-3.07598 -10.832625,-8.713 -12.51416,-15.741 -0.93062,-3.88953 -0.73088,-9.00494 0.49383,-12.64728 2.133205,-6.34424 6.708175,-11.4385 12.72091,-14.1648 3.067616,-1.39092 5.88575,-1.95073 9.79306,-1.94536 5.63727,0.008 10.271685,1.62321 14.659355,5.10993 9.736795,7.73748 11.585955,22.03653 4.18255,32.34257 -0.46372,0.64552 -0.136935,0.98656 8.988865,9.38111 5.208535,4.79117 10.145165,9.33511 10.970285,10.09764 l 1.500225,1.38642 1.36212,-1.1676 c 2.936946,-2.51752 7.976516,-4.29548 12.175406,-4.29548 9.00541,0 16.9483,6.49267 18.74296,15.32088 0.6272,3.08521 0.6272,4.73353 0,7.81875 -1.79466,8.8282 -9.73755,15.32087 -18.74296,15.32087 -7.27195,0 -14.152921,-4.30494 -17.266121,-10.80224 -1.9074,-3.98076 -2.43014,-7.91729 -1.62774,-12.25786 0.36773,-1.98923 1.7264,-5.27042 2.815995,-6.80062 0.35917,-0.50439 0.653025,-1.0648 0.653025,-1.24532 0,-0.31847 -21.27646,-20.08703 -21.61922,-20.08703 -0.094,0 -0.957015,0.65003 -1.91784,1.4445 -2.36687,1.95708 -6.751785,4.11203 -9.703385,4.76869 -1.838675,0.40907 -3.37275,0.50399 -6.30106,0.38987 -2.12887,-0.083 -4.085349,-0.24149 -4.347729,-0.35228 -0.37889,-0.15998 -1.4108,2.2031 -5.014461,11.48315 -2.495565,6.42653 -4.53114,11.82771 -4.52349,12.00263 0.0076,0.17492 0.971685,0.74622 2.142305,1.26956 12.84379,5.74195 20.17299,19.66525 17.72904,33.67989 -1.005495,5.76591 -3.213805,10.47715 -7.04818,15.03665 l -1.38282,1.64432 0.788075,0.6199 c 0.433435,0.34095 2.66555,2.3877 4.96025,4.54834 3.43773,3.2369 4.069315,3.96749 3.58786,4.15029 -0.32137,0.12201 -2.909965,0.39552 -5.75243,0.60778 -2.842465,0.21226 -5.168114,0.42379 -5.168114,0.47007 0,0.0463 1.431169,3.2764 3.180379,7.17807 1.749205,3.90168 3.180385,7.18664 3.180385,7.29992 0,0.16403 -1.730995,0.99164 -4.501285,2.15212 -0.133295,0.0558 -0.44375,-0.37352 -0.689895,-0.95412 z m -17.20941,-19.36056 c 1.037925,-0.18467 2.135565,-0.40835 2.439195,-0.49706 0.506395,-0.14794 0.559015,-0.9793 0.63608,-10.04899 l 0.08401,-9.88771 5.72468,5.3456 c 3.14858,2.94009 6.046701,5.63455 6.440276,5.98768 l 0.715585,0.64207 0.829529,-0.77103 c 2.62596,-2.44076 5.71758,-8.26116 6.849745,-12.89559 0.9552,-3.91003 0.9552,-9.36932 0,-13.27935 -2.608075,-10.67594 -10.85604,-18.93148 -21.67295,-21.69286 -1.849425,-0.47213 -3.421275,-0.60226 -6.996835,-0.57927 -4.03051,0.0259 -4.963715,0.13638 -7.40657,0.87674 -5.237863,1.58746 -9.640641,4.23149 -13.150317,7.89727 -10.76913144,11.24811 -10.91955544,28.57113 -0.3462291,39.87215 4.7001821,5.02366 9.5197291,7.58423 17.2456761,9.16241 1.336175,0.27294 6.80331,0.18907 8.608125,-0.13206 z M 116.47343,88.94912 c 9.10409,-3.15775 14.19594,-13.27513 11.18907,-22.23241 -3.62786,-10.80722 -15.41069,-15.55383 -25.46288,-10.2575 -2.762336,1.45543 -5.854456,4.66434 -7.273936,7.54867 -1.206045,2.45066 -2.09714,5.88668 -2.09714,8.08649 0,2.19253 0.889625,5.63284 2.084415,8.06073 2.471195,5.02164 7.812491,8.81984 13.647421,9.70471 1.87207,0.2839 5.75846,-0.16337 7.91305,-0.91069 z M 64.121934,44.0169 C 78.902169,38.48972 83.510169,20.24336 73.017609,8.79257 68.594104,3.9651 63.084289,1.55678 56.561169,1.59953 c -3.626505,0.0238 -5.984764,0.59135 -9.382125,2.25811 -9.77451,4.79544 -14.52791,16.08591 -11.10764,26.38332 1.77512,5.34434 6.138975,10.36611 11.090865,12.76296 3.785731,1.8324 5.68298,2.21688 10.353015,2.09807 3.52218,-0.0896 4.275485,-0.21334 6.60665,-1.08509 z"
     id="path8727"
     inkscape:connector-curvature="0" />
</svg>
