<?xml version="1.0" encoding="UTF-8" standalone="no"?>
<!-- Created with Inkscape (http://www.inkscape.org/) -->

<svg
   xmlns:dc="http://purl.org/dc/elements/1.1/"
   xmlns:cc="http://creativecommons.org/ns#"
   xmlns:rdf="http://www.w3.org/1999/02/22-rdf-syntax-ns#"
   xmlns:svg="http://www.w3.org/2000/svg"
   xmlns="http://www.w3.org/2000/svg"
   xmlns:sodipodi="http://sodipodi.sourceforge.net/DTD/sodipodi-0.dtd"
   xmlns:inkscape="http://www.inkscape.org/namespaces/inkscape"
   id="svg4206"
   version="1.1"
   inkscape:version="0.91 r13725"
   width="100"
   height="100"
   viewBox="0 0 100 100"
   sodipodi:docname="download_G.svg">
  <metadata
     id="metadata4212">
    <rdf:RDF>
      <cc:Work
         rdf:about="">
        <dc:format>image/svg+xml</dc:format>
        <dc:type
           rdf:resource="http://purl.org/dc/dcmitype/StillImage" />
        <dc:title></dc:title>
      </cc:Work>
    </rdf:RDF>
  </metadata>
  <defs
     id="defs4210" />
  <sodipodi:namedview
     pagecolor="#ffffff"
     bordercolor="#666666"
     borderopacity="1"
     objecttolerance="10"
     gridtolerance="10"
     guidetolerance="10"
     inkscape:pageopacity="0"
     inkscape:pageshadow="2"
     inkscape:window-width="1360"
     inkscape:window-height="744"
     id="namedview4208"
     showgrid="false"
     inkscape:zoom="1.1855469"
     inkscape:cx="131.56016"
     inkscape:cy="153.40017"
     inkscape:window-x="0"
     inkscape:window-y="24"
     inkscape:window-maximized="1"
     inkscape:current-layer="svg4206"
     borderlayer="true" />
  <path
     style="fill:#ffffff"
     d="M 3.7068334,99.53855 C 2.2681613,98.89595 0.96490071,97.51902 0.41055166,96.05596 0.14313601,95.35016 -0.00403997,89.95455 8.4399487e-5,81.00783 0.00640462,67.299313 0.02149578,67.03351 0.87973918,65.518315 3.3494741,61.158045 10.107382,61.356982 12.147912,65.850316 c 0.646433,1.423329 0.727936,2.69419 0.735569,11.469981 l 0.0086,9.869193 37.131788,0 37.13179,0 0.0087,-9.869193 c 0.0075,-8.775791 0.08913,-10.046652 0.735566,-11.469981 2.040702,-4.493467 8.784705,-4.691938 11.275734,-0.332001 0.875711,1.532732 0.880231,1.625598 0.781945,16.073115 -0.09514,13.98619 -0.129073,14.57192 -0.90472,15.61032 -0.443204,0.59334 -1.291548,1.44147 -1.885177,1.88466 -1.074099,0.802 -1.299263,0.80627 -46.683729,0.89087 -37.411974,0.07 -45.8150987,-0.007 -46.777036,-0.43866 z M 47.064706,74.462501 C 46.404561,74.136507 39.867101,67.85277 32.537023,60.498183 20.876456,48.798531 19.175156,46.939663 18.93415,45.635593 c -0.623533,-3.37393 0.57334,-6.253653 3.096804,-7.451127 1.537632,-0.729659 4.587276,-0.835197 5.837239,-0.201995 0.469558,0.238002 4.239573,3.797857 8.377814,7.911127 l 7.524069,7.478719 0,-24.431106 c 0,-23.049783 0.041,-24.507652 0.725183,-25.783388 0.877253,-1.635721 3.5171,-3.130522 5.528593,-3.130522 2.011493,0 4.651345,1.494801 5.528595,3.130522 0.684177,1.275736 0.72518,2.733605 0.72518,25.783388 l 0,24.431106 7.524075,-7.478719 c 4.138235,-4.11327 7.908258,-7.673258 8.377813,-7.911127 1.249965,-0.633335 4.29961,-0.527331 5.837235,0.201995 2.52347,1.197474 3.720335,4.077197 3.09681,7.451127 -0.241,1.30407 -1.942965,3.163604 -13.609688,14.869388 -7.333828,7.358386 -13.897868,13.646389 -14.586759,13.973258 -1.592596,0.755735 -4.303816,0.748462 -5.852407,-0.01333 z"
     id="path4216"
     inkscape:connector-curvature="0" />
</svg>
