<?xml version="1.0" encoding="UTF-8" standalone="no"?>
<!-- Svg Vector Icons : http://www.onlinewebfonts.com/icon -->

<svg
   xmlns:dc="http://purl.org/dc/elements/1.1/"
   xmlns:cc="http://creativecommons.org/ns#"
   xmlns:rdf="http://www.w3.org/1999/02/22-rdf-syntax-ns#"
   xmlns:svg="http://www.w3.org/2000/svg"
   xmlns="http://www.w3.org/2000/svg"
   xmlns:sodipodi="http://sodipodi.sourceforge.net/DTD/sodipodi-0.dtd"
   xmlns:inkscape="http://www.inkscape.org/namespaces/inkscape"
   version="1.1"
   x="0px"
   y="0px"
   viewBox="0 0 455 625"
   enable-background="new 0 0 1000 1000"
   xml:space="preserve"
   id="svg3391"
   inkscape:version="0.91 r13725"
   sodipodi:docname="page1.svg"
   width="455"
   height="625"><defs
     id="defs3401" /><sodipodi:namedview
     pagecolor="#ffffff"
     bordercolor="#666666"
     borderopacity="1"
     objecttolerance="10"
     gridtolerance="10"
     guidetolerance="10"
     inkscape:pageopacity="0"
     inkscape:pageshadow="2"
     inkscape:window-width="1360"
     inkscape:window-height="744"
     id="namedview3399"
     showgrid="false"
     inkscape:zoom="0.607"
     inkscape:cx="500"
     inkscape:cy="500"
     inkscape:window-x="0"
     inkscape:window-y="24"
     inkscape:window-maximized="1"
     inkscape:current-layer="svg3391" /><metadata
     id="metadata3393"> Svg Vector Icons : http://www.onlinewebfonts.com/icon <rdf:RDF><cc:Work
     rdf:about=""><dc:format>image/svg+xml</dc:format><dc:type
       rdf:resource="http://purl.org/dc/dcmitype/StillImage" /><dc:title></dc:title></cc:Work></rdf:RDF></metadata><g
     id="g3395"
     transform="matrix(0.5638166,0,0,0.63782019,-54.408302,-6.37821)"><path
       d="m 276.6,312.6 201.8,0 c 11.9,0 21.6,-9.7 21.6,-21.6 0,-11.9 -9.7,-21.6 -21.6,-21.6 l -201.8,0 c -11.9,0 -21.6,9.7 -21.6,21.6 0,12 9.7,21.6 21.6,21.6 z M 255,507.2 c 0,11.9 9.7,21.6 21.6,21.6 l 432.4,0 c 11.9,0 21.6,-9.7 21.6,-21.6 0,-11.9 -9.7,-21.6 -21.6,-21.6 l -432.4,0 c -11.9,0 -21.6,9.7 -21.6,21.6 z m 417.9,-482.8 -43.2,0 0,-14.4 0,0 0,14.4 -475.6,0 C 122.3,24.4 96.5,50.2 96.5,82 l 0,850.3 c 0,31.8 25.8,57.6 57.6,57.6 l 691.8,0 c 31.8,0 57.6,-25.8 57.6,-57.6 l 0,-662.9 0,0 -230.6,-245 z m 0,57.7 172.9,187.4 -144,0 c -15.9,0 -28.8,-12.9 -28.8,-28.8 l -0.1,-158.6 0,0 z m 173,821.4 c 0,15.9 -12.9,28.8 -28.8,28.8 l -634.2,0 c -15.9,0 -28.8,-12.9 -28.8,-28.8 l 0,-792.6 C 154.1,95 167,82.1 182.9,82.1 l 446.8,0 0,172.9 c 0,31.8 25.8,57.6 57.6,57.6 l 158.5,0 0,590.9 0.1,0 z M 709,716.2 l -432.4,0 c -11.9,0 -21.6,9.7 -21.6,21.6 0,11.9 9.7,21.6 21.6,21.6 l 432.4,0 c 11.9,0 21.6,-9.7 21.6,-21.6 0,-11.9 -9.7,-21.6 -21.6,-21.6 z"
       id="path3397"
       inkscape:connector-curvature="0" /></g></svg>