<?xml version="1.0" encoding="UTF-8" standalone="no"?>
<svg
   xmlns:dc="http://purl.org/dc/elements/1.1/"
   xmlns:cc="http://creativecommons.org/ns#"
   xmlns:rdf="http://www.w3.org/1999/02/22-rdf-syntax-ns#"
   xmlns:svg="http://www.w3.org/2000/svg"
   xmlns="http://www.w3.org/2000/svg"
   viewBox="0 0 446 625"
   height="625"
   width="446"
   version="1.1"
   id="svg3390">
  <metadata
     id="metadata3396">
    <rdf:RDF>
      <cc:Work
         rdf:about="">
        <dc:format>image/svg+xml</dc:format>
        <dc:type
           rdf:resource="http://purl.org/dc/dcmitype/StillImage" />
        <dc:title></dc:title>
      </cc:Work>
    </rdf:RDF>
  </metadata>
  <defs
     id="defs3394" />
  <path
     id="path3402"
     d="M 0,312.5 0,-5e-6 l 116.56514,0 116.56512,0 L 344.06514,110.94012 455,221.88024 455,423.44012 455,625 227.5,625 0,625 0,312.5 Z M 429.69168,416.5625 429.375,234.375 319.0625,234.05571 208.75,233.73641 l 0,-103.7432 0,-103.743215 -91.875,0 -91.875,0 0,286.250005 0,286.25 202.50417,0 202.50419,0 -0.31668,-182.1875 z M 405,208.43407 C 405,208.26032 366.46875,169.58999 319.375,122.5 l -85.625,-85.618161 0,85.934081 0,85.93408 85.625,0 c 47.09375,0 85.625,-0.14216 85.625,-0.31593 z"
     style="fill:#000000" />
</svg>
